<svg width="184" height="171" viewBox="0 0 184 171" fill="none" xmlns="http://www.w3.org/2000/svg">
<path d="M843.731 429.86C836.984 446.59 818.953 458.002 791.806 464.174C764.682 470.341 728.624 471.233 686.126 467.067C601.138 458.737 490.555 430.197 374.534 383.407C258.513 336.616 159.069 280.454 92.0808 227.494C58.583 201.011 33.2324 175.354 17.9753 152.095C2.70482 128.816 -2.36358 108.088 4.38346 91.3582C11.1305 74.6283 29.161 63.2157 56.3088 57.0436C83.4327 50.877 119.491 49.9849 161.989 54.1506C246.976 62.4809 357.559 91.021 473.58 137.811C589.602 184.602 689.045 240.763 756.034 293.724C789.531 320.207 814.882 345.864 830.139 369.123C845.41 392.402 850.478 413.13 843.731 429.86Z" stroke="url(#paint0_linear_2_905)" stroke-width="1.35993"/>
<path d="M841.609 481.393C832.589 497.015 813.141 505.795 785.397 508.111C757.677 510.426 721.848 506.268 680.35 496.202C597.362 476.073 491.854 432.353 383.514 369.803C275.173 307.252 184.557 237.74 125.631 175.935C96.1641 145.029 74.6493 116.079 62.7936 90.9165C50.9275 65.7313 48.8066 44.4981 57.8262 28.8757C66.8458 13.2533 86.2947 4.47343 114.039 2.15723C141.758 -0.156924 177.587 4.00058 219.085 14.0665C302.074 34.1962 407.581 77.9155 515.922 140.466C624.262 203.016 714.878 272.529 773.805 334.334C803.271 365.24 824.786 394.189 836.642 419.352C848.508 444.537 850.629 465.771 841.609 481.393Z" stroke="url(#paint1_linear_2_905)" stroke-width="1.35993"/>
<path d="M141.301 223.778C139.338 225.741 136.156 225.741 134.193 223.778C134.193 223.778 78.9457 168.53 78.9437 168.529C62.5882 152.173 55.0767 128.069 58.6142 105.279C59.6675 98.4924 61.6849 91.8521 64.6409 85.6513C67.2047 80.2728 70.4399 75.22 74.2336 70.6263C88.9622 52.7912 111.902 42.9184 134.977 44.2533C141.745 44.6447 148.678 46.0602 155.153 48.3843C165.299 52.0201 174.342 57.7606 182.027 65.4455L237.276 120.695C239.239 122.657 239.239 125.84 237.276 127.803L141.301 223.778Z" fill="white"/>
<g opacity="0.6">
<path d="M195.425 85.3465L197.772 87.6935L220.471 133.97L165.451 188.99L140.162 212.649L109.501 191.373L103.199 185.071L72.6304 151.683C65.3925 139.683 62.2059 125.931 63.0647 112.385L195.425 85.3465Z" fill="#FFCD6C"/>
<path d="M179.866 69.7871L195.426 85.3467L162.642 143.007L168.837 93.3017L179.866 69.7871Z" fill="#FDE8D8"/>
<path d="M178.776 68.6972L179.866 69.787L162.642 143.007L148.109 76.9054L153.757 52.8119C162.896 56.0871 171.461 61.3823 178.776 68.6972Z" fill="#445CEF"/>
<path d="M153.758 52.812L162.642 143.007L114.615 77.2206L114.305 50.8512C126.73 47.746 139.958 48.2303 152.12 52.2475C152.668 52.4288 153.214 52.6169 153.758 52.812Z" fill="#4AD3F0"/>
<path d="M114.304 50.851L162.642 143.006L91.7177 97.5947L78.4116 73.5241C79.7384 71.9129 81.1481 70.3614 82.6465 68.8508L82.9487 68.5486C91.9394 59.617 102.814 53.7062 114.304 50.851Z" fill="#FDE8D8"/>
<path d="M162.642 143.006L162.026 144.215L161.452 144.031L161.446 144.025L160.38 143.682L160.344 143.67L160.338 143.664L63.0652 112.385C63.0652 112.326 63.0652 112.278 63.071 112.225C63.9773 98.4067 69.0887 84.8134 78.4115 73.5242L162.642 143.006Z" fill="#FF595E"/>
<path d="M161.451 144.031L161.445 144.026L103.199 185.072L82.8003 164.673C79.0275 160.9 75.7935 156.801 73.1045 152.454C72.9385 152.205 72.7846 151.944 72.6305 151.684L160.338 143.664L160.344 143.67L162.209 143.498L161.451 144.031Z" fill="#445CEF"/>
<path d="M155.694 75.7509C156.902 78.1675 169.453 113.403 173.534 119C176.079 122.488 187.949 136.357 196.544 146.321C199.393 149.623 201.503 149.935 203.173 151.859L194.341 163.63L188.341 169.63C188.341 169.63 168.611 184.944 167.366 183.729C163.594 180.051 158.752 176.318 153.876 175.263C143.439 172.988 101.552 174.351 99.8879 170.874C98.2237 167.397 102.459 159.833 107.15 158.471C111.835 157.115 134.97 158.773 134.673 155.149C134.371 151.518 123.787 143.35 115.767 139.263C107.754 135.182 77.2028 119.759 78.8673 113.558C80.5315 107.356 84.4645 105.544 89.0015 107.664C93.5386 109.773 126.352 129.591 127.11 127.317C127.868 125.054 89.7595 91.7787 90.9679 88.1539C92.1819 84.5231 96.8672 79.2339 99.4377 80.2884C102.002 81.3487 135.58 116.134 136.634 114.464C137.694 112.8 115.915 73.1809 118.036 70.7643C120.15 68.3416 124.847 65.4692 127.264 67.5897C129.68 69.6983 150.547 110.229 152.063 109.329C153.58 108.417 142.989 77.866 146.312 75.7515C149.647 73.6367 154.48 73.3285 155.694 75.7509Z" fill="#7B6FE6"/>
<path d="M179.934 159.281C179.549 159.713 179.152 160.134 178.744 160.543C176.037 163.285 172.898 165.761 169.202 166.827C166.667 167.561 163.978 167.597 161.342 167.437C158.949 167.295 156.521 166.987 154.3 166.069C150.515 164.499 147.666 161.283 145.338 157.913C141.879 152.902 139.208 146.831 140.327 140.855C140.807 138.302 141.962 135.939 143.478 133.854C145.001 131.775 146.653 129.897 148.466 128.345C148.851 128.019 149.236 127.706 149.633 127.415L162.344 135.068C162.344 135.068 182.961 155.911 179.934 159.281Z" fill="#445CEF"/>
<path d="M176.682 132.255C177.21 133.102 177.737 133.949 178.335 134.737C179.899 136.786 181.972 138.444 183.399 140.594C184.726 142.596 185.437 144.989 185.431 147.388C185.413 151.86 182.961 155.911 179.934 159.281C177.618 161.372 175.001 163.137 172.021 164.008C169.492 164.736 166.803 164.772 164.168 164.612C161.769 164.475 159.34 164.168 157.125 163.243C153.34 161.674 150.485 158.464 148.158 155.093C144.699 150.083 142.028 144.012 143.153 138.03C143.627 135.483 144.788 133.113 146.304 131.028C146.997 130.087 147.714 129.18 148.466 128.345C148.851 128.02 149.236 127.706 149.633 127.416L161.566 134.763L176.682 132.255Z" fill="#00020A"/>
<path d="M174.248 128.897C174.343 128.98 174.432 129.08 174.521 129.181C174.545 129.205 174.568 129.24 174.592 129.264C175.392 130.182 176.037 131.219 176.683 132.255C176.162 134.778 174.912 137.177 172.951 139.137C172.626 139.463 172.288 139.765 171.938 140.044C171.855 140.127 171.773 140.198 171.684 140.251C169.285 142.14 166.401 143.106 163.492 143.159C163.386 143.159 163.273 143.165 163.166 143.165C162.213 143.159 161.259 143.059 160.318 142.851C160.217 142.822 160.116 142.804 160.027 142.774C157.646 142.206 155.378 140.991 153.524 139.137C153.068 138.681 152.659 138.202 152.28 137.704C152.156 137.544 152.037 137.39 151.931 137.212C149.905 134.298 149.141 130.774 149.633 127.416C149.704 127.356 149.781 127.291 149.864 127.244C149.941 127.179 150.024 127.119 150.118 127.06C151.392 126.142 152.76 125.39 154.211 124.839C154.596 124.691 154.987 124.561 155.378 124.442C157.771 123.72 160.412 123.518 163.309 123.998C164.369 124.17 165.441 124.389 166.489 124.679C166.59 124.697 166.691 124.727 166.791 124.756C168.041 125.105 169.261 125.556 170.398 126.124C170.505 126.172 170.618 126.225 170.712 126.284C172.027 126.96 173.229 127.819 174.248 128.897Z" fill="#FFC4D5"/>
<path d="M172.821 129.045C172.318 129.24 171.832 129.619 171.359 130.176C169.54 132.326 169.191 135.566 170.494 138.065C170.636 138.326 170.802 138.598 170.956 138.859C171.228 139.321 171.501 139.783 171.684 140.251C171.773 140.198 171.856 140.127 171.939 140.044C171.749 139.594 171.494 139.149 171.228 138.705C171.074 138.445 170.92 138.184 170.778 137.923C169.522 135.53 169.86 132.433 171.595 130.377C172.045 129.844 172.484 129.513 172.934 129.335C173.467 129.133 174.018 129.151 174.592 129.264C174.568 129.24 174.545 129.205 174.521 129.181C174.432 129.081 174.343 128.98 174.248 128.897C173.769 128.843 173.295 128.867 172.821 129.045ZM170.399 126.125C169.718 126.581 169.025 127.013 168.338 127.428C167.165 128.138 165.968 128.885 164.873 129.743C162.035 131.988 160.602 134.879 161.04 137.485C161.206 138.456 161.615 139.374 162.018 140.251C162.231 140.689 162.444 141.139 162.616 141.619C162.711 141.868 162.806 142.14 162.906 142.407C162.989 142.656 163.072 142.904 163.167 143.165C163.273 143.165 163.386 143.159 163.493 143.159C163.386 142.875 163.297 142.596 163.196 142.318C163.101 142.045 163.013 141.767 162.906 141.506C162.734 141.026 162.509 140.564 162.313 140.12C161.905 139.261 161.508 138.367 161.342 137.431C160.928 134.932 162.307 132.154 165.068 129.986C166.134 129.133 167.336 128.404 168.497 127.694C169.231 127.244 169.977 126.782 170.712 126.284C170.618 126.225 170.506 126.172 170.399 126.125ZM166.49 124.679C166.217 125.106 165.874 125.461 165.483 125.71C164.707 126.201 163.742 126.29 162.8 126.379C161.769 126.486 160.691 126.58 159.839 127.208C158.843 127.954 158.322 129.317 158.453 130.88C158.529 131.929 158.873 132.936 159.199 133.901C159.282 134.185 159.371 134.452 159.471 134.718C160.36 137.55 160.525 140.345 160.028 142.773C160.117 142.803 160.218 142.821 160.318 142.851C160.839 140.363 160.656 137.514 159.755 134.624C159.666 134.357 159.578 134.079 159.483 133.806C159.157 132.853 158.831 131.864 158.76 130.856C158.659 129.725 158.95 128.25 160.022 127.462C160.803 126.882 161.799 126.787 162.841 126.681C163.807 126.592 164.813 126.497 165.649 125.982C166.104 125.691 166.496 125.277 166.792 124.755C166.691 124.727 166.59 124.697 166.49 124.679ZM154.211 124.839C153.625 125.26 153.08 125.722 152.654 126.314C151.522 127.908 151.487 130.028 151.564 131.929C151.327 131.029 151.048 130.134 150.776 129.246C150.551 128.535 150.32 127.795 150.118 127.06C150.023 127.119 149.941 127.179 149.864 127.244C150.053 127.955 150.272 128.659 150.485 129.347C150.918 130.75 151.362 132.178 151.652 133.64C151.717 134.831 151.806 136.022 151.931 137.212C152.037 137.39 152.156 137.544 152.28 137.704C152.268 137.656 152.274 137.603 152.268 137.562C152.304 137.194 152.304 136.815 152.304 136.448C152.28 135.5 152.15 134.541 151.954 133.599C151.931 133.078 151.913 132.574 151.877 132.065C151.8 130.093 151.794 128.049 152.908 126.497C153.542 125.626 154.46 125.017 155.378 124.442C154.987 124.561 154.596 124.691 154.211 124.839Z" fill="#FDE8D8"/>
<path d="M156.296 162.051C159.637 158.71 159.637 153.294 156.296 149.953C152.956 146.612 147.539 146.612 144.198 149.953C140.858 153.294 140.858 158.71 144.198 162.051C147.539 165.392 152.956 165.392 156.296 162.051Z" fill="#FFCD6C"/>
<path d="M175.173 151.938L172.553 155.7L175.173 159.461C175.262 159.589 175.106 159.745 174.978 159.656L171.217 157.036L167.456 159.656C167.327 159.745 167.172 159.589 167.261 159.461L169.881 155.7L167.261 151.938C167.172 151.811 167.327 151.655 167.456 151.744L171.217 154.364L174.979 151.744C175.107 151.654 175.262 151.81 175.173 151.938Z" fill="#FDE8D8"/>
<path d="M151.057 137.677L149.11 140.472L151.057 143.267C151.123 143.362 151.008 143.478 150.913 143.412L148.118 141.465L145.322 143.412C145.227 143.478 145.112 143.362 145.178 143.267L147.125 140.472L145.178 137.677C145.112 137.582 145.228 137.466 145.323 137.533L148.118 139.479L150.913 137.533C151.008 137.466 151.123 137.582 151.057 137.677Z" fill="#FDE8D8"/>
<path d="M178.557 141.742L177.335 143.496L178.557 145.251C178.598 145.31 178.526 145.383 178.466 145.342L176.712 144.12L174.957 145.341C174.898 145.383 174.825 145.31 174.867 145.251L176.088 143.496L174.866 141.742C174.825 141.682 174.898 141.61 174.957 141.651L176.712 142.873L178.466 141.651C178.526 141.61 178.598 141.682 178.557 141.742Z" fill="#FDE8D8"/>
<path d="M162.043 147.836C162.683 147.196 162.683 146.158 162.043 145.518C161.403 144.877 160.365 144.877 159.724 145.518C159.084 146.158 159.084 147.196 159.724 147.836C160.365 148.477 161.403 148.477 162.043 147.836Z" fill="#FDE8D8"/>
<path d="M171.469 146.274C171.97 146.775 171.97 147.587 171.469 148.088C170.968 148.59 170.156 148.59 169.655 148.088C169.154 147.587 169.154 146.775 169.655 146.274C170.156 145.773 170.968 145.773 171.469 146.274Z" fill="#FDE8D8"/>
<path d="M164.866 155.045C165.506 155.685 165.506 156.723 164.865 157.363C164.225 158.004 163.187 158.004 162.547 157.364C161.907 156.723 161.906 155.685 162.547 155.045C163.187 154.404 164.225 154.405 164.866 155.045Z" fill="#FDE8D8"/>
<path d="M123.928 132.905C123.806 133.027 123.617 133.065 123.452 132.987C123.244 132.888 123.154 132.639 123.253 132.43C127.886 122.651 136.806 115.657 144.676 109.485C144.858 109.343 145.121 109.375 145.264 109.557C145.406 109.738 145.372 109.994 145.193 110.145C137.395 116.259 128.557 123.188 124.01 132.789C123.989 132.833 123.961 132.872 123.928 132.905Z" fill="#00020A"/>
<path d="M197.759 87.6802L234.025 123.946L194.342 163.63C193.24 159.591 195.959 154.432 201.194 152.88C197.386 149.237 193.726 145.861 190.871 141.336C189.467 139.115 188.235 136.71 187.856 134.104C187.311 130.373 188.661 126.416 191.386 123.81C194.105 121.198 198.114 120.007 201.822 120.706C194.572 111.597 193.453 98.5133 197.759 87.6802Z" fill="#00020A"/>
<path d="M188.146 169.826L138.05 219.922L109.501 191.373C109.791 191.273 110.075 191.19 110.36 191.119C116.182 189.668 122.804 192.345 125.984 197.433C124.741 188.465 131.919 179.403 140.845 177.857C149.771 176.323 159.206 181.909 162.837 190.207C162.76 183.164 167.872 177.022 173.771 173.184C176.359 171.496 179.196 170.104 182.235 169.613C184.201 169.293 186.209 169.382 188.146 169.826Z" fill="#00020A"/>
<path d="M133.635 60.2413L128.103 53.3715L135.508 58.0109L140.37 52.078L138.363 59.5275L144.341 63.0068L137.56 62.204L137.962 69.6536L135.017 63.0516L127.746 66.0404L133.635 60.2413Z" fill="#FDE8D8"/>
<path d="M101.472 144.022L95.9402 137.153L103.345 141.792L108.208 135.859L106.2 143.309L112.178 146.788L105.397 145.985L105.799 153.435L102.855 146.833L95.5835 149.821L101.472 144.022Z" fill="#FDE8D8"/>
<path d="M79.4492 123.111C80.9524 124.614 80.9524 127.052 79.4492 128.555C77.946 130.058 75.5085 130.058 74.0052 128.555C72.5018 127.051 72.502 124.614 74.0052 123.111C75.5085 121.607 77.9457 121.607 79.4492 123.111Z" fill="#FDE8D8"/>
<path d="M127.664 171.9C124.877 168.1 119.537 167.28 115.738 170.067C111.938 172.855 111.117 178.194 113.904 181.994C116.692 185.793 122.031 186.614 125.831 183.826C129.631 181.039 130.451 175.699 127.664 171.9Z" fill="#FF595E"/>
<path d="M175.854 92.4772C172.125 91.6863 169.742 88.0212 170.534 84.2915C171.325 80.5619 174.99 78.1794 178.719 78.9708C182.449 79.7617 184.831 83.4268 184.04 87.1565C183.249 90.8863 179.584 93.2686 175.854 92.4772Z" fill="#7B6FE6"/>
<path d="M107.766 74.2729C110.462 71.5769 110.462 67.2059 107.766 64.51C105.07 61.814 100.699 61.814 98.0028 64.51C95.3069 67.2059 95.3069 71.5769 98.0028 74.2729C100.699 76.9688 105.07 76.9688 107.766 74.2729Z" fill="#445CEF"/>
</g>
<defs>
<linearGradient id="paint0_linear_2_905" x1="473.835" y1="137.181" x2="374.28" y2="384.037" gradientUnits="userSpaceOnUse">
<stop stop-color="#7B6FE6"/>
<stop offset="1" stop-color="#D8D8D8" stop-opacity="0"/>
</linearGradient>
<linearGradient id="paint1_linear_2_905" x1="516.261" y1="139.877" x2="383.174" y2="370.392" gradientUnits="userSpaceOnUse">
<stop stop-color="#7B6FE6"/>
<stop offset="1" stop-color="#D8D8D8" stop-opacity="0"/>
</linearGradient>
</defs>
</svg>
